<?xml version="1.0" standalone="no"?>
<!DOCTYPE svg PUBLIC "-//W3C//DTD SVG 20010904//EN"
 "http://www.w3.org/TR/2001/REC-SVG-20010904/DTD/svg10.dtd">
<svg version="1.0" xmlns="http://www.w3.org/2000/svg"
 width="300.000000pt" height="300.000000pt" viewBox="0 0 300.000000 300.000000"
 preserveAspectRatio="xMidYMid meet">
<metadata>
Created by potrace 1.11, written by Peter Selinger 2001-2013
</metadata>
<g transform="translate(0.000000,300.000000) scale(0.100000,-0.100000)"
fill="#000000" stroke="none">
<path d="M1257 2904 c-1 -1 -15 -5 -32 -8 -75 -13 -94 -19 -150 -46 -109 -54
-169 -125 -169 -201 0 -49 17 -79 57 -100 33 -18 155 -30 163 -17 3 5 9 6 13
4 11 -7 90 18 141 44 77 39 165 139 163 185 -3 66 -38 107 -108 127 -41 11
-73 17 -78 12z m-132 -93 c3 -5 2 -12 -3 -15 -5 -3 -9 1 -9 9 0 17 3 19 12 6z
m89 -9 c2 -4 -4 -8 -14 -8 -10 0 -16 4 -14 8 3 4 9 8 14 8 5 0 11 -4 14 -8z"/>
<path d="M1944 2872 c4 -7 -9 -9 -34 -7 -22 2 -42 -1 -45 -5 -3 -5 -15 -7 -26
-5 -17 4 -19 2 -9 -10 15 -18 -1 -20 -18 -3 -10 10 -15 10 -21 0 -5 -8 -11
-13 -15 -13 -18 3 -19 -1 -3 -13 11 -8 14 -17 8 -20 -5 -4 -17 4 -25 16 -13
19 -16 19 -22 5 -3 -9 -10 -15 -14 -12 -5 3 -11 1 -15 -5 -4 -6 -10 -8 -13 -6
-4 2 -24 -8 -45 -24 -36 -27 -37 -29 -16 -35 17 -6 19 -9 8 -16 -19 -12 -32
-11 -24 1 11 18 -10 10 -28 -10 -9 -11 -14 -20 -11 -20 4 0 1 -7 -6 -16 -19
-22 -22 -64 -4 -64 8 0 14 -5 14 -11 0 -5 -6 -7 -12 -3 -10 6 -9 3 0 -8 8 -10
20 -14 29 -11 12 5 14 3 8 -8 -4 -8 -5 -11 0 -7 4 4 14 3 21 -3 10 -8 18 -7
29 5 9 9 22 16 28 16 7 0 4 -7 -6 -14 -16 -12 -15 -13 8 -13 25 0 33 11 15 22
-5 3 -10 11 -10 17 0 6 9 3 20 -7 11 -10 17 -21 15 -25 -7 -11 22 -6 32 5 4 4
3 5 -3 2 -7 -4 -17 0 -24 8 -11 13 -9 15 9 12 13 -2 26 -8 29 -13 6 -9 24 -11
37 -4 3 1 8 4 13 5 4 1 23 8 42 16 19 7 38 12 42 11 8 -2 -26 63 -44 86 -7 8
-7 12 0 12 6 0 16 -9 22 -19 6 -13 17 -17 30 -14 11 3 20 0 20 -6 0 -6 -6 -10
-12 -8 -7 1 -13 -5 -13 -13 0 -8 10 -15 22 -16 12 -1 21 4 20 10 -1 6 4 10 11
8 7 -1 15 5 18 13 3 8 10 13 15 10 4 -3 13 4 19 15 6 11 15 18 19 16 4 -3 8 1
8 9 0 11 -4 12 -13 4 -10 -8 -12 -6 -11 10 2 24 2 24 29 10 15 -8 19 -8 14 0
-4 6 -2 11 5 11 8 0 7 5 -2 17 -12 14 -12 16 2 11 12 -5 15 1 14 25 -1 17 -7
33 -13 35 -7 2 -10 8 -6 13 5 9 -9 13 -35 10 -8 -2 -10 3 -6 11 6 10 5 11 -6
1 -7 -7 -17 -13 -22 -13 -4 0 -5 6 -1 13 4 6 4 9 -1 5 -4 -4 -17 -3 -28 3 -12
7 -17 7 -13 1z m-7 -25 c6 -4 13 -1 16 5 3 10 7 10 17 1 17 -15 3 -35 -20 -28
-21 7 -53 -21 -43 -38 4 -7 0 -8 -11 -4 -10 4 -20 7 -22 7 -2 0 -4 5 -4 11 0
5 5 7 10 4 6 -3 10 -3 11 2 0 4 2 15 4 24 1 9 -3 16 -11 16 -10 0 -11 -4 -4
-12 8 -9 6 -15 -6 -19 -12 -5 -15 -2 -10 11 6 17 5 17 -8 1 -7 -10 -17 -18
-21 -18 -4 0 -2 6 4 13 6 8 7 18 3 22 -4 5 -2 5 5 1 6 -3 14 -3 17 2 6 10 56
9 73 -1z m88 -7 c10 8 15 6 20 -10 3 -11 10 -18 14 -16 4 3 7 -4 7 -14 0 -10
-6 -16 -13 -13 -8 3 -11 -3 -7 -21 4 -22 1 -25 -18 -23 -19 2 -23 -3 -24 -28
-3 -46 -3 -47 -18 -33 -10 10 -11 15 -2 21 6 5 2 6 -10 2 -17 -4 -22 -1 -20
12 1 13 -5 17 -18 15 -17 -3 -18 -1 -7 12 19 23 3 41 -19 21 -14 -13 -19 -13
-23 -3 -3 7 -4 3 -4 -9 1 -13 5 -23 9 -23 4 0 8 -4 8 -10 0 -5 -8 -6 -17 -3
-15 6 -16 5 -3 -9 14 -15 16 -14 25 3 9 15 13 17 23 7 9 -9 12 -9 12 2 0 7 3
11 6 8 3 -4 1 -15 -5 -26 -9 -17 -8 -19 8 -15 10 3 22 0 25 -6 4 -6 2 -11 -4
-11 -6 0 -8 -5 -4 -12 4 -6 3 -8 -3 -5 -6 4 -16 0 -23 -8 -14 -17 -30 -20 -30
-5 0 6 5 9 11 8 21 -5 20 21 0 32 -16 8 -21 8 -21 -1 0 -6 -9 -1 -19 12 -12
16 -18 36 -15 56 2 21 -1 33 -12 37 -8 3 -13 2 -10 -3 3 -5 -2 -15 -11 -22
-15 -12 -16 -12 -10 4 3 9 4 24 0 32 -4 12 -10 10 -27 -12 -11 -15 -30 -29
-41 -31 l-20 -3 20 17 c16 14 17 16 3 11 -10 -4 -18 -2 -18 4 0 6 -7 6 -20 -1
-11 -6 -25 -8 -31 -4 -8 4 -8 0 0 -14 15 -28 14 -32 -4 -26 -8 4 -13 9 -10 13
2 4 -2 8 -9 8 -8 0 -12 -6 -9 -14 4 -9 0 -11 -12 -6 -16 6 -15 9 10 29 16 13
32 21 36 18 4 -2 10 0 14 6 4 6 10 8 15 5 5 -3 12 0 15 5 5 8 14 5 27 -6 16
-15 21 -16 28 -5 4 8 6 20 3 27 -8 22 16 25 27 4 6 -12 16 -20 23 -17 6 2 19
-5 30 -15 19 -20 42 -20 42 0 0 17 15 27 44 28 18 1 28 -4 28 -13 0 -9 -6 -12
-16 -7 -34 13 -46 16 -36 7 6 -4 12 -17 13 -28 2 -10 9 -26 15 -35 13 -16 42
-27 33 -12 -3 5 3 17 14 27 13 11 18 25 14 37 -3 12 -1 17 8 15 7 -2 10 -2 5
0 -4 3 -5 8 -3 12 3 4 -3 7 -13 7 -13 0 -17 -6 -13 -21 3 -11 1 -16 -3 -12 -5
4 -10 15 -11 24 -3 22 8 42 14 25 3 -10 7 -10 17 -2z m-218 -78 c-16 -18 -16
-19 2 -17 11 1 26 7 35 14 13 11 14 8 11 -20 -3 -17 -7 -34 -10 -37 -2 -3 0
-11 6 -19 13 -15 14 -14 -29 -18 -27 -2 -31 0 -21 12 7 7 17 12 24 9 6 -2 12
2 12 9 0 7 -6 11 -14 8 -9 -4 -11 0 -7 11 3 9 1 16 -6 16 -6 0 -8 -4 -5 -10 3
-5 2 -10 -3 -10 -14 0 -24 29 -15 43 12 20 28 35 32 31 2 -2 -3 -12 -12 -22z
m186 16 c-2 -5 0 -8 6 -8 5 0 12 6 14 13 3 7 6 7 6 1 1 -17 -36 -47 -49 -39
-6 4 -9 13 -6 20 3 8 0 16 -7 18 -7 2 0 4 15 3 14 0 24 -4 21 -8z m-258 -18
c-4 -6 -11 -7 -17 -4 -7 4 -8 2 -4 -5 4 -6 12 -9 17 -6 12 8 11 -6 -1 -25 -9
-13 -10 -13 -10 0 0 13 -1 13 -10 0 -7 -11 -8 -6 -5 15 2 17 4 31 4 33 1 1 8
2 17 2 8 0 12 -5 9 -10z m185 -15 c-7 -9 -15 -13 -18 -10 -3 2 1 11 8 20 7 9
15 13 18 10 3 -2 -1 -11 -8 -20z m-118 -45 c7 0 6 -5 -2 -15 -15 -18 -31 -10
-23 10 3 8 0 15 -5 15 -6 0 -9 -12 -6 -27 4 -22 3 -24 -10 -14 -8 7 -12 20 -9
29 4 15 3 15 -6 2 -6 -8 -11 -10 -11 -5 0 6 7 21 17 34 l16 24 14 -27 c7 -14
19 -26 25 -26z m-122 20 c-13 -8 -12 -10 5 -11 11 -1 22 -1 25 -1 3 0 14 -12
24 -27 17 -25 24 -28 80 -27 52 1 61 -2 60 -16 -1 -10 3 -18 10 -18 6 0 4 -5
-4 -10 -24 -16 -32 -12 -20 11 7 11 9 23 6 27 -3 3 -6 0 -6 -7 0 -9 -5 -9 -20
-1 -14 7 -26 8 -39 0 -26 -13 -34 -13 -25 2 4 7 3 8 -5 4 -6 -4 -9 -12 -6 -17
4 -5 2 -9 -2 -9 -5 0 -14 12 -21 28 -6 15 -9 18 -7 7 4 -16 0 -21 -15 -21 -11
0 -20 4 -20 8 0 4 4 8 8 8 4 0 8 10 9 23 0 12 -1 16 -4 9 -4 -10 -8 -9 -17 4
-13 17 -41 11 -31 -7 4 -5 1 -9 -6 -9 -6 0 -9 8 -6 19 3 14 1 18 -9 14 -10 -4
-11 -10 -3 -24 6 -13 6 -19 -1 -19 -5 0 -10 8 -11 18 0 10 -3 12 -6 4 -2 -6
-9 -10 -14 -6 -5 3 -9 2 -8 -3 3 -19 -2 -27 -10 -14 -6 9 -11 10 -15 2 -4 -6
-2 -11 4 -11 6 0 8 -5 5 -10 -4 -6 -1 -9 6 -8 6 2 14 -3 17 -11 3 -8 0 -11 -7
-7 -22 14 -10 -4 13 -20 17 -11 30 -13 42 -6 15 8 15 9 0 15 -10 4 -15 3 -11
-3 3 -6 1 -10 -4 -10 -6 0 -11 2 -11 4 0 2 -3 12 -6 20 -5 12 -2 15 10 10 9
-3 16 -1 16 6 0 6 -4 8 -10 5 -5 -3 -10 -1 -10 4 0 6 2 11 4 11 2 0 11 3 19 6
12 4 15 -1 13 -20 -2 -15 1 -29 7 -33 6 -4 7 -1 2 7 -6 9 -4 11 4 5 10 -6 11
-3 2 14 -7 11 -8 21 -3 21 5 0 14 -10 20 -22 6 -13 11 -17 11 -10 1 6 6 12 12
12 5 0 7 -4 4 -10 -4 -6 1 -7 11 -3 12 5 15 3 9 -6 -6 -10 -3 -11 13 -2 30 16
36 14 21 -6 -13 -16 -12 -17 3 -5 13 10 17 10 21 0 5 -12 11 15 8 35 -1 9 11
9 28 -2 10 -7 11 -13 2 -30 -7 -12 -16 -19 -21 -16 -5 3 -11 1 -15 -5 -4 -7
-14 -6 -28 2 -12 7 -32 13 -44 13 -12 0 -25 4 -29 7 -3 4 -21 -4 -39 -18 -29
-22 -34 -23 -45 -9 -7 9 -19 14 -27 11 -8 -3 -12 -2 -8 3 7 12 -5 42 -14 36
-14 -8 -5 30 13 57 10 15 23 25 30 22 6 -2 20 2 31 10 11 9 27 15 35 16 13 0
13 -1 0 -10z m14 -46 c8 -22 8 -24 -7 -18 -8 3 -14 11 -14 19 0 20 13 19 21
-1z m-70 -29 c-4 -8 -10 -12 -15 -9 -11 6 -2 24 11 24 5 0 7 -7 4 -15z"/>
<path d="M1836 2733 c-6 -14 -5 -15 5 -6 7 7 10 15 7 18 -3 3 -9 -2 -12 -12z"/>
<path d="M1825 2609 c-4 -6 -5 -12 -2 -15 2 -3 7 2 10 11 7 17 1 20 -8 4z"/>
<path d="M2653 2825 c0 -8 4 -12 9 -9 5 3 6 10 3 15 -9 13 -12 11 -12 -6z"/>
<path d="M2696 2793 c-6 -14 -5 -15 5 -6 7 7 10 15 7 18 -3 3 -9 -2 -12 -12z"/>
<path d="M2550 2756 c7 -7 13 -7 20 0 6 6 3 10 -10 10 -13 0 -16 -4 -10 -10z"/>
<path d="M2475 2720 c-3 -5 -1 -10 4 -10 6 0 11 5 11 10 0 6 -2 10 -4 10 -3 0
-8 -4 -11 -10z"/>
<path d="M2550 2722 c0 -5 7 -9 15 -9 8 0 12 4 9 9 -3 4 -9 8 -15 8 -5 0 -9
-4 -9 -8z"/>
<path d="M2545 2680 c-3 -6 1 -7 9 -4 18 7 21 14 7 14 -6 0 -13 -4 -16 -10z"/>
<path d="M2230 2646 c0 -2 7 -7 16 -10 8 -3 12 -2 9 4 -6 10 -25 14 -25 6z"/>
<path d="M2419 2648 c-5 -18 -6 -38 -1 -34 7 8 12 36 6 36 -2 0 -4 -1 -5 -2z"/>
<path d="M413 2336 c-128 -60 -187 -191 -141 -315 94 -253 495 -211 525 56 16
151 -103 278 -266 282 -51 1 -77 -4 -118 -23z"/>
<path d="M1150 2322 c0 -4 -11 -8 -25 -8 -67 -4 -171 -87 -203 -163 -61 -145
46 -276 224 -273 41 1 146 35 171 56 80 66 98 92 118 166 22 85 -29 174 -122
211 -31 13 -163 21 -163 11z m-59 -199 c13 -16 12 -17 -3 -4 -17 13 -22 21
-14 21 2 0 10 -8 17 -17z m276 -48 c0 -8 -4 -12 -9 -9 -5 3 -6 10 -3 15 9 13
12 11 12 -6z m-227 -149 c0 -2 -8 -10 -17 -17 -16 -13 -17 -12 -4 4 13 16 21
21 21 13z"/>
<path d="M1874 2257 c-16 -9 -19 -27 -3 -27 5 0 8 4 5 9 -7 11 49 20 65 10 14
-8 0 -16 -28 -14 -13 2 -20 -2 -17 -10 3 -8 -3 -12 -18 -11 -13 1 -29 -2 -35
-7 -8 -6 -13 -6 -13 1 0 6 5 14 10 17 13 8 13 25 -1 25 -5 0 -8 -4 -4 -9 3 -5
1 -12 -5 -16 -5 -3 -10 -1 -10 4 0 12 -28 10 -50 -4 -8 -5 -20 -10 -27 -11 -7
-1 -26 -12 -42 -23 -16 -12 -33 -21 -38 -21 -16 0 -104 -100 -98 -110 4 -6 1
-10 -4 -10 -6 0 -11 -8 -11 -17 0 -15 2 -14 16 3 14 17 15 17 10 1 -3 -10 -1
-27 4 -38 13 -24 2 -25 -16 -1 -13 15 -13 15 -8 0 7 -20 56 -55 52 -37 -2 6 3
14 10 16 8 3 10 -1 6 -11 -3 -9 -2 -16 2 -17 64 -7 111 -4 107 8 -6 16 -15 16
-32 1 -11 -11 -13 -10 -8 4 3 10 0 24 -8 32 -13 12 -12 15 1 20 22 9 24 8 18
-8 -8 -20 14 -30 32 -15 13 11 15 10 14 -2 -4 -28 0 -39 15 -39 8 0 15 4 15 9
0 6 9 8 20 6 13 -2 18 0 14 7 -4 6 1 8 13 4 11 -3 27 1 39 10 10 8 14 13 8 10
-7 -3 -14 1 -18 9 -7 20 8 19 28 -1 9 -9 16 -11 16 -4 0 6 4 8 10 5 6 -4 7 1
3 12 -5 15 -3 16 7 6 11 -10 21 -7 49 14 47 36 76 66 76 78 1 6 6 9 13 8 7 -2
9 4 5 14 -4 9 -2 14 3 10 5 -3 9 12 9 35 -1 50 -30 78 -76 73 -21 -3 -28 -1
-22 8 4 7 0 7 -10 -2 -9 -7 -17 -9 -17 -4 0 11 -56 11 -76 0z m102 -19 c5 -7
3 -8 -6 -3 -8 5 -11 4 -7 -3 4 -5 16 -8 28 -5 15 4 17 8 7 14 -9 6 -6 8 9 6
12 0 21 -8 21 -17 -1 -8 1 -21 3 -29 2 -7 -2 -16 -9 -18 -7 -3 -10 1 -6 10 7
19 -14 33 -29 18 -7 -7 -14 -7 -24 0 -9 8 -14 7 -19 -5 -3 -9 -10 -13 -15 -10
-5 3 -6 11 -3 17 4 7 3 8 -2 4 -5 -5 -9 -14 -9 -19 0 -6 -6 -13 -13 -16 -10
-3 -10 2 -1 22 9 18 18 25 29 21 11 -3 20 1 24 10 7 18 12 19 22 3z m91 -35
c0 -7 -4 -13 -9 -13 -4 0 -8 -5 -8 -11 0 -5 4 -7 10 -4 6 3 7 -1 4 -9 -3 -9
-10 -16 -16 -16 -5 0 -7 -4 -3 -9 3 -5 1 -12 -5 -16 -6 -4 -8 -10 -5 -15 6
-10 -33 -23 -54 -18 -8 2 -16 -4 -18 -12 -4 -13 -3 -13 6 0 8 11 11 12 11 2 0
-7 6 -10 13 -7 6 4 -4 -7 -23 -24 -20 -19 -38 -27 -43 -22 -11 11 -39 2 -31
-10 3 -5 -2 -6 -11 -3 -25 10 -38 41 -19 48 9 3 14 12 11 19 -4 10 4 14 24 14
23 0 26 -3 17 -14 -6 -7 -13 -11 -16 -8 -3 3 -12 -4 -20 -16 -8 -11 -11 -23
-8 -26 3 -4 6 -1 6 6 0 7 5 9 12 5 7 -4 8 -3 4 4 -10 17 10 15 28 -3 8 -8 17
-11 20 -6 4 5 0 12 -6 15 -7 3 -2 3 12 0 19 -4 22 -3 10 5 -8 6 -24 8 -35 4
-18 -5 -18 -4 -6 11 8 9 16 14 19 11 3 -3 12 4 20 16 11 16 16 18 29 7 12 -10
18 -9 29 7 8 11 12 26 9 33 -3 8 0 21 7 29 15 19 19 43 7 43 -6 0 -7 4 -4 10
7 12 32 -8 32 -27z m-249 4 c7 -9 11 -21 7 -27 -3 -5 4 -14 15 -20 11 -6 20
-15 20 -21 0 -6 -12 -2 -27 9 -39 26 -61 33 -69 20 -4 -6 -3 -8 3 -5 6 4 13 0
17 -8 6 -17 -2 -19 -24 -5 -12 7 -13 13 -3 28 9 15 8 19 -3 19 -7 0 -11 -4 -8
-9 5 -7 -10 -12 -29 -9 -5 1 -6 -3 -2 -9 3 -6 10 -8 15 -5 5 3 7 -7 6 -22 -2
-15 -8 -29 -14 -31 -7 -2 -9 5 -7 17 2 12 -1 21 -6 21 -6 0 -7 5 -4 10 3 6 1
10 -5 10 -7 0 -9 -7 -6 -16 7 -18 -10 -44 -27 -44 -5 0 -2 10 9 22 15 19 16
20 2 9 -13 -10 -18 -10 -18 -2 0 7 -5 9 -11 5 -8 -5 -8 -9 1 -14 9 -5 9 -9 1
-14 -6 -4 -11 -1 -11 6 -1 7 -8 0 -16 -15 -8 -15 -19 -25 -24 -22 -10 6 -7
-21 3 -31 11 -11 8 -36 -3 -29 -5 3 -10 1 -10 -4 0 -6 5 -11 11 -11 5 0 7 -5
3 -12 -4 -7 -3 -8 5 -4 6 4 9 12 6 17 -8 12 6 11 25 -1 13 -9 13 -10 0 -10
-13 0 -13 -2 0 -11 12 -9 12 -10 -4 -5 -10 4 -26 1 -35 -6 -9 -7 -13 -9 -9 -4
4 5 3 18 -3 28 -8 14 -8 23 0 31 7 7 6 14 -5 22 -14 10 -10 18 30 61 25 27 46
46 46 41 0 -4 19 6 41 23 23 16 45 28 49 25 4 -3 13 2 20 10 15 18 31 15 48
-8z m72 -8 c0 -3 -9 -10 -19 -15 -18 -8 -18 -10 -3 -24 14 -13 15 -12 9 3 -3
9 -2 17 3 17 6 0 10 -5 10 -12 0 -6 8 -4 19 6 17 16 19 16 25 0 4 -9 4 -19 1
-22 -3 -3 -5 0 -5 6 0 7 -5 12 -12 12 -9 0 -9 -3 0 -12 17 -17 15 -33 -3 -18
-8 6 -19 9 -25 5 -5 -3 -22 3 -36 14 -15 12 -22 21 -15 21 6 0 10 3 10 8 -1 4
-1 9 0 12 1 8 41 7 41 -1z m92 -1 c17 17 27 15 26 -5 -1 -10 1 -27 5 -38 4
-11 2 -26 -2 -34 -8 -13 -12 -13 -26 -1 -15 12 -18 12 -26 -2 -8 -15 -15 -15
-86 -9 -21 2 -15 18 9 24 12 4 28 2 34 -4 9 -7 16 -4 24 11 6 11 8 24 5 29 -3
5 -2 17 1 26 5 13 8 14 15 3 6 -10 11 -10 21 0z m-168 -60 c-1 -8 5 -15 12
-15 7 0 11 4 8 9 -3 4 -3 8 0 8 3 0 13 -14 22 -32 13 -25 14 -33 4 -36 -25 -9
-51 -43 -45 -61 3 -11 -2 -24 -12 -32 -16 -13 -17 -12 -4 4 12 15 12 17 -3 11
-9 -3 -16 -1 -16 5 0 6 5 11 10 11 6 0 9 3 8 8 -1 4 3 17 10 28 6 12 8 25 4
29 -4 4 3 4 15 1 12 -4 24 -2 28 3 4 7 -1 8 -12 4 -16 -6 -16 -5 -5 9 12 15
10 16 -17 13 -24 -3 -29 -1 -25 13 5 15 4 15 -5 2 -6 -8 -11 -10 -11 -5 0 6
-5 3 -10 -5 -5 -8 -14 -16 -20 -16 -5 -1 -15 -2 -21 -3 -5 0 -7 -5 -4 -11 3
-5 2 -10 -4 -10 -5 0 -13 10 -16 21 -6 17 -9 18 -16 8 -4 -7 -10 -11 -14 -8
-3 3 5 14 17 25 12 10 18 14 15 7 -9 -15 9 -27 26 -16 6 4 15 8 19 8 3 0 10 4
15 8 4 5 2 7 -6 5 -7 -1 -16 4 -18 12 -3 9 -1 11 4 5 7 -10 14 -11 53 -6 13 1
13 2 0 12 -13 9 -13 10 0 6 8 -2 15 -11 14 -19z m-147 -48 c6 -8 15 -12 19 -8
4 4 13 0 21 -10 12 -16 14 -16 28 2 8 11 15 16 15 12 0 -4 6 -4 13 1 6 4 25 8
41 9 26 2 27 1 10 -9 -10 -6 -26 -11 -34 -12 -29 -2 -62 -26 -56 -41 3 -8 2
-14 -3 -14 -5 0 -12 11 -15 25 -8 31 -21 33 -23 3 -2 -18 0 -20 7 -8 6 10 10
11 10 3 0 -11 -30 -33 -45 -33 -3 0 -17 12 -30 26 -23 25 -24 27 -7 49 19 26
31 27 49 5z m132 -31 c-8 -5 -11 -9 -6 -9 4 0 1 -11 -8 -24 -8 -13 -13 -30
-10 -39 7 -17 -10 -32 -20 -17 -3 5 -1 10 6 10 8 0 8 4 -1 15 -10 12 -16 13
-27 4 -7 -7 -17 -9 -20 -5 -11 11 20 26 42 21 11 -3 15 -2 8 1 -7 3 -9 13 -6
22 4 14 3 15 -6 2 -5 -8 -13 -11 -17 -7 -11 11 22 32 53 34 19 1 22 -1 12 -8z
m51 -25 c0 -8 -4 -12 -10 -9 -5 3 -10 1 -10 -4 0 -6 5 -11 10 -11 6 0 10 -7
10 -15 0 -22 -17 -18 -23 6 -6 24 1 49 14 49 5 0 9 -7 9 -16z m-172 -47 c7 -8
7 -18 2 -27 -8 -12 -10 -12 -10 -1 0 10 -3 11 -14 2 -11 -9 -16 -9 -22 0 -4 8
-3 9 4 5 11 -6 16 6 13 27 -2 12 16 8 27 -6z"/>
<path d="M1776 2211 c-9 -14 23 -36 35 -24 8 8 7 13 -2 18 -8 6 -10 4 -4 -5 5
-8 3 -11 -6 -8 -8 3 -13 11 -11 17 2 13 -5 15 -12 2z"/>
<path d="M1959 2177 c12 -15 11 -20 -3 -35 -9 -10 -16 -22 -16 -27 0 -4 10 5
21 19 21 27 21 28 3 44 -17 16 -17 16 -5 -1z"/>
<path d="M1996 2151 c4 -17 3 -21 -6 -16 -9 6 -11 4 -5 -4 5 -9 11 -9 17 -3 7
7 6 16 -1 29 -11 16 -11 15 -5 -6z"/>
<path d="M1890 2120 c0 -5 5 -10 10 -10 6 0 10 5 10 10 0 6 -4 10 -10 10 -5 0
-10 -4 -10 -10z"/>
<path d="M1623 2075 c-9 -10 -6 -15 12 -23 29 -13 41 0 25 25 -9 15 -10 14 -5
-7 6 -24 6 -24 -7 -4 -10 18 -15 19 -25 9z"/>
<path d="M2695 2220 c-3 -5 -1 -10 4 -10 6 0 11 5 11 10 0 6 -2 10 -4 10 -3 0
-8 -4 -11 -10z"/>
<path d="M2290 2099 c0 -5 5 -7 10 -4 6 3 10 8 10 11 0 2 -4 4 -10 4 -5 0 -10
-5 -10 -11z"/>
<path d="M2387 2079 c7 -7 15 -10 18 -7 3 3 -2 9 -12 12 -14 6 -15 5 -6 -5z"/>
<path d="M2315 2040 c-3 -5 -1 -10 4 -10 6 0 11 5 11 10 0 6 -2 10 -4 10 -3 0
-8 -4 -11 -10z"/>
<path d="M2234 2000 c0 -13 4 -16 10 -10 7 7 7 13 0 20 -6 6 -10 3 -10 -10z"/>
<path d="M2310 2000 c0 -5 5 -10 10 -10 6 0 10 5 10 10 0 6 -4 10 -10 10 -5 0
-10 -4 -10 -10z"/>
<path d="M461 1743 c-68 -17 -112 -44 -149 -91 -85 -107 -73 -244 28 -335 89
-80 210 -95 318 -40 193 98 186 358 -12 449 -66 30 -117 35 -185 17z"/>
<path d="M1123 1706 c-132 -33 -225 -140 -218 -251 5 -81 35 -120 122 -160
127 -59 322 9 389 136 10 20 19 60 20 97 2 56 0 66 -29 104 -18 23 -49 50 -70
61 -48 25 -146 31 -214 13z m47 -60 c0 -2 -7 -7 -16 -10 -8 -3 -12 -2 -9 4 6
10 25 14 25 6z m156 -81 c-1 -8 -5 -17 -8 -21 -5 -4 -4 16 1 34 3 9 9 -1 7
-13z"/>
<path d="M465 1142 c-11 -2 -24 -8 -29 -13 -6 -5 -18 -9 -28 -9 -27 0 -123
-100 -138 -144 -57 -174 69 -339 259 -338 164 1 285 127 267 279 -16 135 -117
222 -266 228 -25 0 -54 -1 -65 -3z"/>
<path d="M1122 1100 c-126 -35 -212 -128 -217 -235 -10 -215 318 -272 479 -83
43 50 54 84 51 155 -3 70 -35 116 -101 148 -64 30 -136 35 -212 15z m-36 -335
c-1 -8 -5 -17 -8 -21 -5 -4 -4 16 1 34 3 9 9 -1 7 -13z m85 -2 c13 -16 12 -17
-3 -4 -10 7 -18 15 -18 17 0 8 8 3 21 -13z"/>
<path d="M1974 1017 c3 -33 1 -45 -8 -41 -13 5 -17 44 -4 44 4 0 5 6 2 14 -3
8 -19 13 -39 13 -26 -1 -31 -4 -24 -14 8 -9 5 -11 -10 -10 -14 1 -20 6 -16 16
4 11 2 11 -8 3 -8 -7 -17 -9 -20 -5 -4 3 -14 0 -23 -8 -10 -8 -18 -12 -18 -10
-1 2 -11 1 -24 -3 -12 -4 -20 -12 -17 -17 4 -5 2 -9 -4 -9 -5 0 -11 4 -13 9
-1 5 -23 -4 -48 -21 -25 -17 -47 -30 -50 -28 -3 1 -11 -8 -17 -21 -7 -13 -13
-20 -13 -15 0 5 -11 -1 -24 -13 -15 -14 -22 -29 -19 -39 5 -11 3 -13 -8 -7 -8
4 -11 4 -6 0 4 -5 -1 -17 -10 -28 -11 -13 -12 -17 -4 -12 11 6 13 4 8 -8 -3
-10 -2 -17 4 -17 6 0 8 -4 5 -9 -10 -16 35 -45 73 -47 21 -1 43 -4 49 -8 6 -3
13 -2 17 3 3 5 14 8 25 6 11 -2 20 -1 20 3 0 4 12 8 28 9 34 2 54 6 70 16 6 5
12 5 12 0 0 -4 4 -3 8 3 4 6 21 16 37 21 17 6 29 16 27 23 -2 7 3 10 12 7 10
-4 13 1 11 19 -1 13 2 27 6 30 9 5 13 -10 9 -35 -1 -8 19 5 43 29 30 27 43 48
40 58 -4 10 -2 13 5 8 7 -4 12 -4 13 1 0 4 2 17 4 28 7 34 -5 60 -35 77 -19
11 -30 13 -30 6 0 -6 -9 -3 -20 7 -20 18 -20 18 -16 -28z m-28 -9 c-2 -15 3
-40 11 -55 16 -31 26 -83 15 -82 -24 4 -33 -3 -27 -21 4 -11 2 -20 -4 -20 -6
0 -19 -8 -29 -17 -22 -23 -72 -47 -94 -46 -10 0 -18 -3 -18 -7 0 -4 -16 -7
-35 -5 -19 1 -35 -3 -35 -8 0 -15 -14 1 -16 18 -3 18 8 19 24 3 9 -9 12 -9 12
1 0 7 4 10 9 7 5 -4 11 -3 14 1 2 5 2 2 0 -5 -1 -7 2 -10 8 -7 5 4 7 14 4 24
-3 12 1 17 15 17 11 0 20 -4 20 -8 0 -4 -5 -8 -11 -8 -5 0 -7 -5 -3 -12 6 -9
9 -9 11 -1 3 7 12 9 21 5 15 -5 15 -4 0 12 -22 22 -23 33 -3 33 9 0 14 -6 11
-14 -3 -8 -1 -11 4 -8 6 3 10 0 10 -7 0 -9 3 -9 10 2 5 8 10 11 10 5 0 -5 4
-4 9 3 13 21 3 71 -20 103 -11 16 -16 29 -10 29 6 0 15 -9 21 -20 7 -13 16
-17 28 -13 15 6 15 5 3 -11 -11 -13 -12 -19 -2 -29 10 -9 15 -8 25 5 7 10 15
16 17 13 3 -2 5 8 4 23 0 21 -5 26 -20 24 -16 -3 -17 -1 -6 12 15 18 5 40 -16
32 -9 -4 -13 -1 -10 6 2 7 10 12 16 11 6 -2 11 2 11 7 0 13 -17 13 -26 -1 -4
-8 -9 -7 -15 2 -6 10 -8 7 -6 -9 0 -12 5 -22 9 -22 4 0 8 -4 8 -8 0 -4 -9 -8
-19 -8 -16 0 -19 6 -16 28 3 27 3 27 -18 13 -23 -16 -41 -20 -33 -7 3 5 -1 9
-9 9 -14 0 -19 -10 -16 -29 1 -11 -6 -10 -32 3 -21 10 -21 10 -3 -5 15 -12 16
-16 5 -16 -8 0 -21 6 -28 13 -11 10 -12 9 -6 -2 6 -11 4 -13 -9 -8 -9 4 -14 3
-11 -2 3 -5 -4 -12 -15 -16 -11 -3 -20 -11 -20 -17 0 -6 6 -5 16 2 12 11 18
11 31 -2 14 -14 12 -16 -18 -14 -18 1 -35 8 -37 15 -3 8 -12 -2 -22 -25 -23
-49 -12 -82 17 -53 7 7 11 3 11 -15 0 -21 -3 -24 -14 -15 -11 9 -18 8 -30 -2
-13 -11 -15 -11 -14 2 4 26 0 39 -12 39 -9 0 -9 -3 0 -12 9 -9 7 -15 -6 -25
-12 -11 -14 -16 -4 -19 6 -3 10 -9 7 -14 -3 -4 3 -14 12 -21 12 -10 14 -10 9
-1 -4 6 -3 12 3 12 5 0 13 -5 17 -11 4 -8 9 -7 15 2 8 12 11 11 20 -1 9 -13
10 -13 6 2 -4 9 1 19 10 22 10 4 13 2 10 -8 -3 -7 -1 -18 5 -24 6 -6 6 -12 -1
-16 -6 -4 -11 -3 -11 2 0 5 -17 8 -37 7 -35 -3 -91 20 -80 32 3 3 2 15 -3 28
-6 17 -5 27 6 36 8 7 13 18 10 24 -5 13 29 47 38 38 3 -3 11 6 17 20 7 15 15
24 20 22 4 -3 14 0 21 7 25 23 59 39 69 32 6 -3 19 3 30 15 16 17 24 19 39 11
13 -7 21 -7 26 2 4 7 3 8 -4 4 -7 -4 -12 -2 -12 4 0 8 7 9 18 5 29 -11 52 -14
68 -8 13 5 13 7 2 14 -9 6 -6 8 9 6 18 -1 22 -6 19 -29z m77 17 c10 -1 23 -7
29 -13 14 -14 20 -74 7 -66 -8 5 -10 0 -13 -34 -1 -9 -52 -62 -60 -62 -1 0 -1
19 -1 43 0 38 2 42 25 42 19 0 24 5 22 19 -2 10 1 15 7 12 19 -12 23 16 4 35
-19 20 -53 17 -53 -3 0 -6 6 -5 15 2 12 10 18 10 30 0 8 -7 15 -17 15 -22 0
-6 -7 -5 -16 2 -12 11 -18 10 -32 -5 -9 -10 -12 -15 -7 -12 6 2 15 -1 22 -8 9
-10 5 -12 -19 -11 -18 1 -33 8 -36 16 -3 12 -2 12 6 2 12 -18 20 1 17 45 -1
21 2 30 9 26 6 -4 19 -8 29 -8z m-172 -67 c-7 -18 -6 -29 2 -37 13 -13 13 -12
-31 -16 -27 -2 -30 0 -21 11 6 8 15 11 20 8 5 -3 9 -2 10 3 0 4 2 16 4 26 2 9
-1 15 -6 11 -5 -3 -6 -10 -3 -16 4 -6 -1 -8 -12 -4 -11 3 -26 1 -34 -5 -11 -8
-9 -9 10 -3 22 6 23 5 11 -9 -7 -9 -17 -14 -22 -11 -5 3 -9 0 -9 -5 0 -6 -4
-11 -9 -11 -22 0 -5 40 22 51 21 9 25 14 15 20 -8 5 0 7 20 4 19 -2 32 1 32 7
0 6 2 9 5 6 3 -3 1 -17 -4 -30z m79 4 c0 -4 -5 -13 -10 -18 -8 -8 -6 -15 5
-24 12 -10 15 -10 15 0 0 8 2 11 5 8 8 -7 -16 -58 -27 -58 -11 0 -10 14 2 26
8 8 6 15 -5 24 -12 10 -15 10 -15 -1 0 -8 -6 -5 -14 7 -8 10 -12 21 -10 24 3
2 9 -2 13 -9 7 -10 10 -9 16 8 6 20 25 30 25 13z m-187 -45 c-2 -4 -11 -3 -19
4 -12 10 -12 14 -2 20 13 9 30 -10 21 -24z m131 -40 c-1 -9 1 -17 5 -17 11 0
8 -39 -4 -44 -6 -2 -18 9 -27 25 -10 16 -13 29 -9 29 4 0 12 -10 18 -22 9 -20
10 -19 10 12 0 19 -2 29 -5 22 -2 -6 -9 -9 -15 -5 -16 10 -67 11 -67 1 0 -5
-10 -4 -21 3 -15 8 -19 8 -15 0 9 -14 0 -14 -25 -1 -13 7 -25 7 -38 0 -14 -7
-21 -6 -25 3 -3 6 -3 2 -1 -10 6 -23 -9 -40 -20 -23 -3 5 -1 10 5 10 6 0 8 5
5 10 -13 21 7 26 117 25 100 -1 113 -3 112 -18z m-119 -10 c17 0 41 3 55 8 14
4 22 4 18 0 -4 -4 -3 -17 3 -28 7 -13 8 -17 1 -13 -6 4 -15 -1 -20 -9 -5 -10
-15 -13 -25 -9 -14 5 -15 9 -6 21 7 7 19 11 28 8 13 -5 14 -4 4 6 -10 10 -16
10 -25 1 -9 -9 -15 -9 -27 1 -14 10 -14 10 -3 -4 10 -14 10 -18 -4 -23 -23 -9
-24 -8 -18 12 5 15 4 15 -6 2 -10 -13 -11 -13 -7 2 3 9 0 18 -6 21 -8 3 -12
-6 -11 -27 1 -26 5 -31 23 -29 15 2 20 -1 15 -9 -4 -7 -3 -8 5 -4 6 4 9 12 6
17 -4 5 -1 9 4 9 17 0 13 -27 -4 -34 -8 -3 -25 -2 -38 3 -14 6 -30 5 -42 -2
-19 -10 -80 -18 -70 -9 3 3 -1 12 -7 21 -10 13 -10 14 2 4 10 -9 17 -10 27 -1
10 8 17 8 25 0 13 -13 40 -4 31 11 -21 34 -3 73 27 60 8 -3 29 -6 45 -6z"/>
<path d="M1610 881 c0 -7 -5 -9 -12 -5 -7 5 -8 3 -3 -5 5 -9 10 -10 18 -2 6 6
8 14 4 18 -4 3 -7 1 -7 -6z"/>
<path d="M1910 838 c0 -4 4 -8 9 -8 6 0 12 4 15 8 3 5 -1 9 -9 9 -8 0 -15 -4
-15 -9z"/>
<path d="M2025 910 c5 -9 2 -10 -14 -5 -12 3 -21 2 -21 -4 0 -17 16 -21 35 -7
14 10 15 15 5 21 -9 6 -11 4 -5 -5z"/>
<path d="M1684 840 c0 -13 4 -16 10 -10 7 7 7 13 0 20 -6 6 -10 3 -10 -10z"/>
<path d="M2610 979 c0 -5 5 -7 10 -4 6 3 10 8 10 11 0 2 -4 4 -10 4 -5 0 -10
-5 -10 -11z"/>
<path d="M2470 976 c0 -2 8 -10 18 -17 15 -13 16 -12 3 4 -13 16 -21 21 -21
13z"/>
<path d="M2375 900 c-3 -5 -1 -10 4 -10 6 0 11 5 11 10 0 6 -2 10 -4 10 -3 0
-8 -4 -11 -10z"/>
<path d="M2455 900 c-3 -5 -1 -10 4 -10 6 0 11 5 11 10 0 6 -2 10 -4 10 -3 0
-8 -4 -11 -10z"/>
<path d="M2375 860 c3 -5 8 -10 11 -10 2 0 4 5 4 10 0 6 -5 10 -11 10 -5 0 -7
-4 -4 -10z"/>
<path d="M2455 860 c3 -5 8 -10 11 -10 2 0 4 5 4 10 0 6 -5 10 -11 10 -5 0 -7
-4 -4 -10z"/>
<path d="M2225 840 c-3 -6 1 -7 9 -4 18 7 21 14 7 14 -6 0 -13 -4 -16 -10z"/>
<path d="M1175 458 c-39 -8 -75 -21 -105 -39 -8 -5 -24 -13 -35 -18 -30 -13
-88 -71 -111 -111 -23 -39 -25 -109 -4 -135 86 -103 355 -55 472 84 58 69 64
135 16 187 -35 39 -135 53 -233 32z"/>
<path d="M1901 445 c-1 -6 -15 -11 -33 -10 -32 0 -40 -12 -39 -58 0 -15 -3
-16 -14 -7 -11 9 -12 17 -4 31 13 25 -16 27 -30 2 -7 -12 -10 -14 -11 -4 0 10
-3 11 -13 2 -8 -6 -16 -9 -19 -6 -3 3 -11 -1 -18 -10 -7 -8 -18 -15 -26 -15
-20 0 -27 -19 -12 -37 11 -14 11 -16 -4 -10 -9 3 -19 1 -22 -6 -4 -7 -4 -1 -2
12 4 21 -1 19 -39 -20 -24 -24 -45 -51 -47 -59 -2 -8 -7 -18 -13 -22 -6 -5 -5
-8 3 -8 6 0 12 -5 12 -11 0 -5 -4 -8 -9 -5 -5 4 -8 0 -7 -6 3 -23 21 -45 45
-58 15 -7 21 -8 17 -1 -4 6 -2 11 4 11 6 0 8 5 4 12 -4 7 -3 8 5 4 6 -4 9 -12
6 -17 -4 -5 0 -9 7 -9 9 0 9 -3 -2 -10 -12 -7 -10 -9 8 -7 14 1 18 5 12 11 -6
6 -10 17 -10 25 0 11 4 10 15 -5 15 -19 15 -19 30 0 11 15 15 16 15 5 0 -8 -5
-20 -10 -25 -7 -7 -6 -11 4 -11 8 0 13 4 11 8 -3 4 2 10 11 13 12 4 15 2 10
-9 -4 -12 -2 -13 13 -6 10 6 22 7 26 3 5 -4 5 -1 1 6 -6 9 -1 11 20 8 18 -4
35 1 46 11 10 9 18 13 18 9 0 -4 10 -1 23 6 12 7 25 11 29 10 4 -1 4 6 1 16
-6 15 -5 15 10 3 14 -11 18 -11 23 2 3 8 17 18 30 21 14 4 22 11 19 16 -3 6 0
10 8 10 8 0 27 17 43 37 34 44 39 95 12 125 -12 14 -18 17 -18 7 -1 -10 -4 -8
-11 4 -9 15 -13 16 -27 5 -13 -11 -15 -11 -10 4 7 17 -7 19 -29 5 -8 -5 -13
-3 -13 5 0 9 -3 9 -10 -2 -9 -13 -10 -13 -10 0 0 12 -2 13 -9 1 -7 -11 -9 -11
-14 0 -3 8 -6 9 -6 4z m75 -14 c-9 -14 20 -21 34 -8 10 9 11 9 6 0 -4 -7 -2
-14 3 -14 6 -1 15 -2 21 -3 5 0 13 -5 19 -11 7 -7 0 -10 -19 -11 -16 -1 -27 2
-25 7 3 4 0 11 -6 15 -8 5 -9 3 -4 -7 7 -11 5 -11 -10 1 -11 9 -16 10 -11 3 9
-16 1 -16 -25 -3 -10 6 -19 16 -19 22 0 7 6 6 16 -2 8 -8 14 -9 13 -4 -2 14 0
24 7 24 3 0 3 -4 0 -9z m-71 -19 c-3 -8 -1 -20 4 -26 6 -7 6 -17 1 -26 -6 -8
-10 -13 -11 -10 -8 45 -11 56 -18 63 -5 5 -15 -2 -24 -18 -9 -18 -17 -24 -21
-16 -4 6 -3 11 3 11 5 0 8 8 6 18 -2 14 4 17 31 18 26 0 33 -3 29 -14z m76
-27 c19 -1 24 -7 23 -28 -1 -17 3 -24 13 -20 8 3 11 0 8 -9 -3 -7 -14 -14 -25
-14 -13 0 -19 5 -16 13 8 19 -4 42 -25 54 -17 9 -18 7 -9 -16 6 -15 10 -27 10
-28 0 -2 -11 -4 -25 -5 -27 -2 -30 4 -15 28 5 9 5 19 -1 26 -5 6 -7 19 -3 28
5 14 8 13 23 -6 10 -11 29 -22 42 -23z m-186 6 c-6 -18 18 -37 40 -32 6 2 7
-1 3 -5 -4 -4 -3 -13 4 -21 9 -11 7 -18 -7 -31 -17 -16 -17 -16 -11 1 8 26
-12 63 -27 48 -16 -16 -32 -14 -18 3 9 11 5 13 -21 11 -21 -1 -32 -6 -30 -14
2 -9 -5 -10 -20 -6 -19 5 -20 4 -8 -5 12 -9 12 -11 1 -8 -25 7 -23 25 4 32 14
4 25 10 25 15 0 5 12 8 26 6 15 -1 28 3 31 11 8 21 15 17 8 -5z m81 4 c-3 -8
-1 -15 5 -15 6 0 7 -5 4 -10 -4 -6 -10 -8 -15 -5 -12 8 -2 -45 13 -64 13 -17
43 -28 33 -12 -4 5 0 12 6 15 7 3 3 3 -9 0 -19 -4 -22 -2 -17 13 5 15 4 16 -6
3 -10 -13 -11 -13 -6 3 3 9 1 17 -5 17 -6 0 -7 5 -4 10 4 7 17 0 32 -16 20
-22 27 -25 35 -13 7 10 8 9 3 -6 -4 -11 -8 -26 -8 -32 0 -7 -3 -13 -6 -14 -3
0 -18 -2 -34 -4 -15 -2 -25 0 -22 6 9 14 -4 29 -20 23 -7 -3 -11 -12 -8 -20 3
-8 0 -14 -6 -14 -16 0 -13 21 6 42 12 13 14 21 6 29 -8 8 -7 21 5 45 16 34 29
48 18 19z m179 -23 c16 -11 18 -35 2 -29 -8 3 -13 -3 -14 -17 0 -11 1 -15 4
-8 3 6 9 12 14 12 6 0 -3 -16 -18 -35 -15 -19 -33 -35 -40 -35 -7 0 -16 -7
-21 -15 -4 -9 -18 -17 -30 -18 -15 -1 -21 -6 -17 -16 4 -11 3 -11 -9 -2 -12
10 -17 8 -26 -9 -6 -11 -15 -18 -21 -15 -5 4 -9 1 -9 -6 0 -7 -2 -10 -5 -7 -3
3 -2 13 1 22 5 14 9 15 15 4 7 -10 9 -8 10 7 1 11 1 24 0 29 -1 5 5 6 13 3 9
-4 18 -2 21 3 6 9 -30 6 -59 -6 -12 -4 -17 -4 -13 2 3 5 -3 10 -13 10 -10 0
-16 -4 -14 -8 7 -11 -8 -10 -26 2 -18 11 -15 12 68 14 48 2 65 -2 72 -13 6
-12 8 -7 6 14 -2 17 3 42 10 57 8 15 11 35 7 45 -3 10 -3 15 2 11 11 -10 15
-79 5 -73 -5 3 -12 0 -16 -6 -5 -8 -3 -9 7 -4 11 7 11 5 -1 -10 -12 -15 -12
-17 -1 -10 11 6 13 4 8 -11 -7 -19 -7 -19 8 0 8 10 12 23 9 27 -7 12 9 11 24
-1 6 -6 10 -7 7 -4 -2 4 2 18 9 33 15 29 11 55 -7 44 -7 -4 -6 1 2 10 15 19
21 20 36 9z m-287 -42 c1 -16 -1 -30 -5 -30 -5 0 -9 14 -9 30 -1 17 1 30 5 30
4 0 8 -13 9 -30z m48 -25 c2 -26 -2 -38 -16 -45 -25 -13 -39 -13 -20 1 12 8
10 9 -9 4 -17 -5 -22 -4 -16 5 5 7 4 11 -1 8 -5 -3 -17 3 -26 14 -22 22 -16
23 24 2 16 -9 27 -11 24 -5 -4 6 -3 11 3 11 5 0 15 -8 20 -17 6 -10 11 -14 11
-9 0 5 -7 18 -16 28 -14 14 -14 20 -4 33 17 20 22 14 26 -30z m-69 20 c0 -8
-9 -13 -21 -12 -16 2 -20 -3 -18 -20 2 -13 -2 -23 -8 -23 -6 0 -9 4 -5 9 10
18 -18 24 -31 7 -6 -9 -14 -13 -16 -9 -3 4 -3 3 -2 -4 2 -8 -7 -11 -26 -8 -22
2 -27 0 -25 -13 1 -10 10 -16 19 -14 9 2 16 -1 15 -5 -4 -26 2 -45 15 -40 7 3
18 1 24 -5 8 -8 15 -8 25 1 11 9 17 8 26 -3 10 -12 4 -14 -41 -14 -74 0 -80
-1 -73 -12 10 -16 -4 -11 -26 9 -16 15 -18 21 -7 27 21 13 40 14 35 1 -2 -7
-13 -11 -23 -9 -16 2 -16 1 -4 -7 11 -7 19 -6 29 3 14 15 6 40 -10 31 -5 -4
-9 -1 -9 5 0 6 -4 9 -8 6 -5 -3 -9 1 -9 9 0 8 4 15 9 15 5 0 7 4 3 9 -7 12 29
33 40 23 5 -4 6 0 2 10 -7 20 2 31 17 19 7 -6 26 -3 51 9 50 23 52 23 52 5z
m263 -25 c0 -5 -2 -10 -4 -10 -3 0 -8 5 -11 10 -3 6 -1 10 4 10 6 0 11 -4 11
-10z m-325 -19 c-10 -18 18 -24 31 -7 11 16 13 16 18 -1 8 -25 75 -51 121 -47
29 2 34 0 23 -9 -8 -7 -22 -24 -31 -39 -16 -26 -45 -33 -63 -15 -4 3 3 4 15 2
14 -3 19 0 15 7 -5 7 -2 9 8 6 8 -4 15 0 15 8 0 7 -4 11 -9 8 -4 -3 -8 1 -9 8
0 7 -4 4 -8 -6 -4 -12 -20 -21 -37 -23 -28 -4 -28 -4 -9 11 19 15 19 17 2 30
-11 9 -14 16 -7 19 6 3 5 4 -2 3 -7 -2 -11 -11 -10 -21 3 -16 2 -17 -12 -6
-14 12 -19 11 -36 -4 -15 -14 -23 -15 -33 -6 -8 6 -18 7 -22 3 -5 -4 -5 -1 -1
6 4 7 2 12 -5 12 -7 0 -9 3 -6 6 4 4 19 -1 34 -11 27 -18 28 -18 13 0 -13 17
-13 18 0 13 8 -3 26 -1 39 4 19 7 22 11 12 21 -10 9 -15 8 -25 -5 -7 -10 -17
-13 -25 -8 -10 5 -10 9 -2 13 7 3 7 4 -1 3 -7 -2 -12 -9 -10 -16 2 -8 -3 -10
-15 -5 -10 4 -26 8 -35 9 -9 0 -14 4 -11 9 3 5 11 6 19 3 20 -8 44 4 44 20 0
8 5 14 11 14 5 0 8 -4 4 -9z m50 -81 c5 -8 11 -7 21 1 8 7 14 7 14 1 0 -18
-33 -23 -49 -7 -9 9 -11 15 -4 15 7 0 15 -5 18 -10z m24 -39 c8 -5 9 -11 3
-15 -6 -3 -13 -2 -17 4 -4 6 -11 7 -17 4 -7 -4 -8 -2 -4 4 8 14 16 15 35 3z"/>
<path d="M1926 353 c-6 -14 -5 -15 5 -6 7 7 10 15 7 18 -3 3 -9 -2 -12 -12z"/>
<path d="M1795 320 c-3 -5 -1 -10 4 -10 6 0 11 5 11 10 0 6 -2 10 -4 10 -3 0
-8 -4 -11 -10z"/>
<path d="M1787 209 c6 -23 9 -24 16 -5 3 8 0 17 -7 19 -10 4 -12 -1 -9 -14z"/>
<path d="M2510 379 c0 -5 5 -7 10 -4 6 3 10 8 10 11 0 2 -4 4 -10 4 -5 0 -10
-5 -10 -11z"/>
<path d="M2655 380 c-3 -5 -1 -10 4 -10 6 0 11 5 11 10 0 6 -2 10 -4 10 -3 0
-8 -4 -11 -10z"/>
<path d="M2650 320 c0 -5 5 -10 11 -10 5 0 7 5 4 10 -3 6 -8 10 -11 10 -2 0
-4 -4 -4 -10z"/>
<path d="M2375 300 c3 -5 8 -10 11 -10 2 0 4 5 4 10 0 6 -5 10 -11 10 -5 0 -7
-4 -4 -10z"/>
<path d="M2495 300 c3 -5 8 -10 11 -10 2 0 4 5 4 10 0 6 -5 10 -11 10 -5 0 -7
-4 -4 -10z"/>
<path d="M2530 299 c0 -5 5 -7 10 -4 6 3 10 8 10 11 0 2 -4 4 -10 4 -5 0 -10
-5 -10 -11z"/>
<path d="M2436 207 c3 -10 9 -15 12 -12 3 3 0 11 -7 18 -10 9 -11 8 -5 -6z"/>
</g>
</svg>
